<?xml version="1.0" encoding="utf-8"?>
<!-- Generator: Adobe Illustrator 20.1.0, SVG Export Plug-In . SVG Version: 6.00 Build 0)  -->
<svg version="1.1" id="Layer_1" xmlns="http://www.w3.org/2000/svg" xmlns:xlink="http://www.w3.org/1999/xlink" x="0px" y="0px"
	 viewBox="0 0 250.8 55.9" style="enable-background:new 0 0 250.8 55.9;" xml:space="preserve">
<style type="text/css">
	.st0{fill:#FFFFFF;}
	.st1{fill:#F3822F;}
	.st2{fill:#A8A8A8;}
</style>
<g>
	<g>
		<path class="st0" d="M53,19.7c1.1-1.2,1.6-2.8,1.6-4.5c0-3.7-3-6.7-6.7-6.8H37.6v3.4H40v16.6h-2.4v3.4h0.2h11.6
			c3.7-0.1,6.6-3,6.6-6.6C55.9,23,54.8,20.9,53,19.7z M47.8,18.6h-4.4v-6.8h4.4c1.9,0,3.4,1.5,3.4,3.4S49.7,18.6,47.8,18.6z
			 M49.4,28.4h-6V22h5.9c1.8,0,3.3,1.4,3.3,3.2C52.6,27,51.2,28.4,49.4,28.4z"/>
		<path class="st0" d="M70.8,22.8c2.1-1.5,3.4-3.9,3.4-6.5c0-4.2-3.5-7.8-7.7-7.9h-8.9v3.5h2.1v16.5h-2.1v3.5h7.7v-3.5h-2.1v-4.1
			h3.3h0.1c0.3,0,0.5,0,0.8,0l3.9,7.5l0.1,0.2h4.3v-3.5h-2.2L70.8,22.8z M63.1,11.8h3.1c2.5,0,4.5,2,4.5,4.4c0,2.5-2,4.5-4.5,4.5
			h-3.1V11.8z"/>
		<polygon class="st0" points="77.5,11.7 79.7,11.7 79.7,28.3 77.4,28.3 77.4,31.8 93.9,31.8 93.9,28.3 83.2,28.3 83.2,21.9 
			91.6,21.9 91.6,18.5 83.2,18.5 83.2,11.7 93.9,11.7 93.9,8.3 77.5,8.3 		"/>
		<polygon class="st0" points="121.1,11.9 123.1,11.9 118.6,22.7 114,11.9 116.3,11.9 116.3,8.4 108.5,8.4 108.5,11.9 110.8,11.9 
			106.2,22.7 101.6,11.9 103.6,11.9 103.6,8.4 95.8,8.4 95.8,11.9 97.8,11.9 104.6,28.3 101.5,28.3 101.5,31.8 110.5,31.8 
			110.5,28.3 107.8,28.3 112.4,17.2 117,28.3 114,28.3 114,31.8 123.1,31.8 123.1,28.3 120.1,28.3 126.9,11.9 128.9,11.9 128.9,8.4 
			121.1,8.4 		"/>
		<path class="st0" d="M139,18h-0.1c-0.4,0-0.9-0.1-1.4-0.2c-2.1-0.2-3.1-1.2-3.1-2.8c0-1.7,1.4-3.1,3.1-3.2h0.5
			c1,0.1,1.9,0.3,2.7,0.8v2.6h3.6v-4l0,0c-1.3-1.7-3.7-2.7-6.2-2.7h-0.5c-3.5,0-6.5,3-6.5,6.6c0,3.8,3.4,5.7,6.5,6.2
			c0.2,0,0.5,0.1,0.8,0.1c0.2,0,0.5,0.1,0.7,0.1c2.7,0.4,4,1.5,4,3.4c0,2.2-1.7,3.8-4,3.9h-0.9c-1.5-0.1-2.6-0.5-3.6-1.2v-2.3H131
			v3.4h0.1c1.5,2,4.2,3.3,7,3.3h0.9c4,0,7.1-3.1,7.1-7C146.1,21.2,143.4,18.6,139,18z"/>
		<path class="st0" d="M164.3,26.4c-1.5,1.2-3.3,1.9-5.1,1.9c-4.5,0-8.1-3.6-8.1-8.1s3.6-8.1,8.1-8.1c1.1,0,2.3,0.2,3.3,0.7v2.6h3.5
			v-4.9h-0.1c-2-1.4-4.4-2.1-6.7-2.1c-6.5,0-11.7,5.3-11.7,11.8s5.2,11.7,11.7,11.7c2.4,0,4.8-0.7,6.7-2.1l0.1-0.1l-1.5-3.4
			L164.3,26.4z"/>
		<polygon class="st0" points="179.4,28.4 173.2,28.4 173.2,12 174.9,12 174.9,8.4 167.8,8.4 167.8,12 169.6,12 169.6,28.4 
			167.8,28.4 167.8,31.8 183,31.8 183,26 179.4,26 		"/>
		<path class="st0" d="M196.1,12h2.1v11.4c0,2.8-2.1,5-4.9,5c-2.7,0-4.9-2.2-4.9-4.9V12h2.1V8.4h-7.9V12h2.1v11.7
			c0.2,4.7,3.9,8.3,8.5,8.3s8.3-3.7,8.5-8.3V12h2.1V8.4h-7.9V12H196.1z"/>
		<polygon class="st0" points="205.8,11.7 208,11.7 208,28.3 205.7,28.3 205.7,31.8 222.2,31.8 222.2,28.3 211.5,28.3 211.5,21.9 
			219.9,21.9 219.9,18.5 211.5,18.5 211.5,11.7 222.2,11.7 222.2,8.3 205.8,8.3 		"/>
		<path class="st0" d="M232.1,18H232c-0.4,0-0.9-0.1-1.4-0.2c-2.1-0.2-3.1-1.2-3.1-2.8c0-1.7,1.4-3.1,3.1-3.2h0.5
			c1,0.1,1.9,0.3,2.7,0.8v2.6h3.6v-4l0,0c-1.3-1.7-3.8-2.7-6.2-2.7h-0.5c-3.5,0-6.5,3-6.5,6.6c0,3.8,3.4,5.7,6.5,6.2
			c0.2,0,0.5,0.1,0.8,0.1c0.2,0,0.5,0.1,0.7,0.1c2.7,0.4,4,1.5,4,3.4c0,2.2-1.7,3.8-4,3.9h-1c-1.5-0.1-2.6-0.5-3.6-1.2v-2.3H224v3.4
			h0.1c1.5,2,4.2,3.3,7,3.3h0.9c4,0,7.1-3.1,7.1-7C239.2,21.2,236.5,18.6,232.1,18z"/>
	</g>
	<path class="st1" d="M33.2,18c0-8.3-6.7-15-15-15s-15,6.7-15,15c0,2.2,0.5,4.3,1.3,6.1l0,0l0.1,0.2c0.3,0.7,0.6,1.3,1,1.8L18.2,49
		l12.7-23c0.3-0.5,0.6-1,0.8-1.5l0.3-0.6h-0.1C32.8,22.1,33.2,20.1,33.2,18z M21.9,33.9c0,0.7-1.7,1.2-3.7,1.2s-3.7-0.5-3.7-1.2
		c0.1,0-0.1-1.3,0.1-1.9l0.1-11.1c0,0,0,0,0-0.1c0-0.2-0.2-1.9,0.9-3.1c0.7-0.8,0.6-2.3,0.6-2.6c0,0,0,0,0-0.1
		c0.1-0.4,0.6-5.2,0.9-5.8c-0.2-0.1-0.4-0.1-0.4-0.2c0-0.4,0.4-0.9,0.4-0.9c-0.2-0.1-0.4-0.4-0.2-0.6C17.2,7,18.3,7,18.3,7
		s1-0.1,1.5,0.6c0.2,0.2,0.1,0.5-0.2,0.6c0,0,0.4,0.5,0.4,0.9c0,0.1-0.1,0.2-0.4,0.2c0.4,0.6,0.9,5.4,0.9,5.8c0,0,0,0,0,0.1
		c0,0.2-0.1,1.8,0.6,2.6c1,1.2,0.9,2.9,0.9,3.1c0,0,0,0,0,0.1l-0.1,11C22.1,32.7,21.9,33.9,21.9,33.9z"/>
</g>
<g>
	<path class="st2" d="M40.6,39.5v4H46v1.3h-5.3v4.9h-1.3V38.2h7.2v1.3H40.6z"/>
	<path class="st2" d="M48.5,49.6V38.2h1.3v11.4H48.5z"/>
	<path class="st2" d="M61.4,49.6l-6.8-9.1v9.1h-1.3V38.2h1.4l6.8,9.2v-9.2h1.3v11.4H61.4z"/>
	<path class="st2" d="M70.8,38.2c3.3,0,5.9,2.5,5.9,5.7s-2.6,5.7-5.9,5.7h-4.6V38.2H70.8z M67.5,48.4h3.3c2.5,0,4.5-1.9,4.5-4.4
		c0-2.6-2-4.5-4.6-4.5h-3.3L67.5,48.4L67.5,48.4z"/>
	<path class="st2" d="M84.5,46.8l-1.3,2.9h-1.4l5.1-11.4h1.4l5.1,11.4H92l-1.3-2.9C90.7,46.8,84.5,46.8,84.5,46.8z M87.6,39.7
		L85,45.5h5.1L87.6,39.7z"/>
	<path class="st2" d="M104.4,38.2c2.3,0,3.7,1.1,3.7,2.8c0,1.3-0.8,2.3-2.1,2.6c1.6,0.2,2.6,1.3,2.6,2.9c0,1.9-1.5,3.1-4.1,3.1h-4.9
		V38.2H104.4z M100.9,43.2h3.4c1.5,0,2.4-0.7,2.4-1.9s-0.9-1.8-2.4-1.8h-3.4V43.2z M100.9,48.4h3.4c1.9,0,2.9-0.7,2.9-2
		c0-1.2-1.1-2-2.9-2h-3.4V48.4z"/>
	<path class="st2" d="M116.4,46c-0.2,0-0.5,0-0.8,0h-3v3.6h-1.3V38.2h4.3c2.8,0,4.5,1.4,4.5,3.8c0,1.9-0.9,3.2-2.6,3.7l2.7,3.9h-1.5
		L116.4,46z M115.6,44.8c2.1,0,3.2-0.9,3.2-2.7c0-1.7-1.2-2.6-3.2-2.6h-3v5.3H115.6z"/>
	<path class="st2" d="M124.4,39.5v3.7h5.7v1.3h-5.7v3.9h6.6v1.2h-7.9V38.2h7.7v1.3H124.4z"/>
	<path class="st2" d="M143.4,49.6l-3.1-9.6l-3.1,9.6h-1.3L132,38.2h1.4l3.1,9.9l3.1-9.9h1.3l3.1,9.9l3.1-9.9h1.4l-3.8,11.4H143.4z"
		/>
	<path class="st2" d="M162.8,49.6l-6.8-9.1v9.1h-1.3V38.2h1.4l6.8,9.2v-9.2h1.3v11.4H162.8z"/>
	<path class="st2" d="M168.9,39.5v3.7h5.7v1.3h-5.7v3.9h6.6v1.2h-7.9V38.2h7.7v1.3H168.9z"/>
	<path class="st2" d="M179.2,46.8l-1.3,2.9h-1.4l5.1-11.4h1.4l5.1,11.4h-1.4l-1.3-2.9C185.4,46.8,179.2,46.8,179.2,46.8z
		 M182.3,39.7l-2.5,5.8h5.1L182.3,39.7z"/>
	<path class="st2" d="M195,46c-0.2,0-0.5,0-0.8,0h-3v3.6h-1.3V38.2h4.3c2.8,0,4.5,1.4,4.5,3.8c0,1.9-0.9,3.2-2.6,3.7l2.7,3.9h-1.5
		L195,46z M194.2,44.8c2.1,0,3.2-0.9,3.2-2.7c0-1.7-1.2-2.6-3.2-2.6h-3v5.3H194.2z"/>
	<path class="st2" d="M210.2,49.6h-1.3v-3.9l-4.4-7.5h1.4l3.7,5.9l3.6-5.9h1.3l-4.3,7.5V49.6z"/>
	<path class="st2" d="M226.5,43.9c0,3.2-2.6,5.8-6,5.8c-3.3,0-6-2.6-6-5.8s2.6-5.7,6-5.7S226.5,40.7,226.5,43.9z M215.9,43.9
		c0,2.5,2.1,4.5,4.7,4.5c2.5,0,4.6-2,4.6-4.5s-2.1-4.5-4.6-4.5C218,39.4,215.9,41.4,215.9,43.9z"/>
	<path class="st2" d="M238.2,44.9c0,3-1.8,4.8-4.8,4.8s-4.8-1.8-4.8-4.8v-6.7h1.3v6.7c0,2.2,1.3,3.5,3.5,3.5s3.5-1.3,3.5-3.5v-6.7
		h1.3V44.9z"/>
</g>
</svg>
